# xmcd
#
# Track frame offsets:
#	150
#	16111
#	30160
#	49763
#	63541
#	76310
#	91914
#	108133
#	130492
#	149493
#	164438
#	179418
#	200136
#	213807
#
# Disc length: 3189 seconds
#
# Revision: 0
# Processed by: cddbd v1.5.2PL0 Copyright (c) Steve Scherf et al.
# Submitted via: EasyCDDAExtractor 11.1.0.1
#
DISCID=bb0c730e
DTITLE=Various Artist - Mr Music Country
DYEAR=2009
DGENRE=country
TTITLE0=Brooks and Dunn - Cowgirls don't cry
TTITLE1=Tony Booth - Colors I'm gonna paint the town
TTITLE2=Cledus T Judd - Merger on music row
TTITLE3=Joe Bonson and Coffee Run - Who are you
TTITLE4=Jake Hooker - Rodeo man
TTITLE5=Chris Young - The dashboard
TTITLE6=Teri Joyce - Kitchen radio
TTITLE7=Jake Owen - Nothing grows in shadows
TTITLE8=Brad Paisley - Anything like me
TTITLE9=Billy D Hunter - Dealing with the devil
TTITLE10=Patty Loveless - Higher than the wall
TTITLE11=Bo Göran Svensson - Two pina coladas
TTITLE12=Nilsen's Southern Harmony - Vegas wedding nightmare
TTITLE13=Daryle Singletary - She sure looks good in black
EXTD=
EXTT0=
EXTT1=
EXTT2=
EXTT3=
EXTT4=
EXTT5=
EXTT6=
EXTT7=
EXTT8=
EXTT9=
EXTT10=
EXTT11=
EXTT12=
EXTT13=
PLAYORDER=
